<svg width="210" height="90" viewBox="0 0 210 90" fill="none" xmlns="http://www.w3.org/2000/svg">
<path d="M3.30273 35C3.15039 35 3.04492 34.9531 2.98633 34.8594C2.92773 34.7539 2.89844 34.5254 2.89844 34.1738V10.5488C2.89844 10.1973 2.92773 9.97461 2.98633 9.88086C3.04492 9.77539 3.15039 9.72266 3.30273 9.72266H4.46289C4.61523 9.72266 4.7207 9.77539 4.7793 9.88086C4.83789 9.97461 4.86719 10.1973 4.86719 10.5488V33.0664C4.86719 33.1719 4.87891 33.2539 4.90234 33.3125C4.92578 33.3711 4.94922 33.4062 4.97266 33.418C5.00781 33.418 5.05469 33.418 5.11328 33.418H9.78906C9.94141 33.418 10.0469 33.4473 10.1055 33.5059C10.1758 33.5527 10.2109 33.6934 10.2109 33.9277V34.4551C10.2109 34.6191 10.1875 34.7422 10.1406 34.8242C10.1055 34.9062 10.0645 34.959 10.0176 34.9824C9.9707 34.9941 9.89453 35 9.78906 35H3.30273ZM13.4629 35C13.3105 35 13.2051 34.9531 13.1465 34.8594C13.0879 34.7539 13.0586 34.5254 13.0586 34.1738V10.5488C13.0586 10.1973 13.0879 9.97461 13.1465 9.88086C13.2051 9.77539 13.3105 9.72266 13.4629 9.72266H14.623C14.7754 9.72266 14.8809 9.77539 14.9395 9.88086C14.998 9.97461 15.0273 10.1973 15.0273 10.5488V34.1738C15.0273 34.5254 14.998 34.7539 14.9395 34.8594C14.8809 34.9531 14.7754 35 14.623 35H13.4629ZM21.6719 35C21.5312 35 21.4258 34.9531 21.3555 34.8594C21.2969 34.7539 21.2676 34.5254 21.2676 34.1738V11.8496C21.2676 11.5566 21.209 11.4102 21.0918 11.4102H17.9102C17.8047 11.4102 17.7285 11.4043 17.6816 11.3926C17.6348 11.3809 17.5879 11.334 17.541 11.252C17.5059 11.1699 17.4883 11.041 17.4883 10.8652V10.373C17.4883 10.0801 17.5176 9.89844 17.5762 9.82812C17.6465 9.75781 17.7578 9.72266 17.9102 9.72266H26.541C26.6934 9.72266 26.7988 9.75781 26.8574 9.82812C26.916 9.89844 26.9453 10.0801 26.9453 10.373V10.8652C26.9453 11.041 26.9277 11.1699 26.8926 11.252C26.8574 11.334 26.8164 11.3809 26.7695 11.3926C26.7227 11.4043 26.6465 11.4102 26.541 11.4102H23.4121C23.2949 11.4102 23.2363 11.5566 23.2363 11.8496V34.1738C23.2363 34.5254 23.2012 34.7539 23.1309 34.8594C23.0723 34.9531 22.9668 35 22.8145 35H21.6719ZM32.1836 35C32.043 35 31.9375 34.9531 31.8672 34.8594C31.8086 34.7539 31.7793 34.5254 31.7793 34.1738V11.8496C31.7793 11.5566 31.7207 11.4102 31.6035 11.4102H28.4219C28.3164 11.4102 28.2402 11.4043 28.1934 11.3926C28.1465 11.3809 28.0996 11.334 28.0527 11.252C28.0176 11.1699 28 11.041 28 10.8652V10.373C28 10.0801 28.0293 9.89844 28.0879 9.82812C28.1582 9.75781 28.2695 9.72266 28.4219 9.72266H37.0527C37.2051 9.72266 37.3105 9.75781 37.3691 9.82812C37.4277 9.89844 37.457 10.0801 37.457 10.373V10.8652C37.457 11.041 37.4395 11.1699 37.4043 11.252C37.3691 11.334 37.3281 11.3809 37.2812 11.3926C37.2344 11.4043 37.1582 11.4102 37.0527 11.4102H33.9238C33.8066 11.4102 33.748 11.5566 33.748 11.8496V34.1738C33.748 34.5254 33.7129 34.7539 33.6426 34.8594C33.584 34.9531 33.4785 35 33.3262 35H32.1836ZM40.252 35C40.0996 35 39.9941 34.9531 39.9355 34.8594C39.877 34.7539 39.8477 34.5254 39.8477 34.1738V10.5488C39.8477 10.1973 39.877 9.97461 39.9355 9.88086C39.9941 9.77539 40.0996 9.72266 40.252 9.72266H41.4121C41.5645 9.72266 41.6699 9.77539 41.7285 9.88086C41.7871 9.97461 41.8164 10.1973 41.8164 10.5488V33.0664C41.8164 33.1719 41.8281 33.2539 41.8516 33.3125C41.875 33.3711 41.8984 33.4062 41.9219 33.418C41.957 33.418 42.0039 33.418 42.0625 33.418H46.7383C46.8906 33.418 46.9961 33.4473 47.0547 33.5059C47.125 33.5527 47.1602 33.6934 47.1602 33.9277V34.4551C47.1602 34.6191 47.1367 34.7422 47.0898 34.8242C47.0547 34.9062 47.0137 34.959 46.9668 34.9824C46.9199 34.9941 46.8438 35 46.7383 35H40.252ZM50.3418 35C50.2363 35 50.1602 34.9941 50.1133 34.9824C50.0664 34.959 50.0254 34.9004 49.9902 34.8066C49.9551 34.7129 49.9375 34.5723 49.9375 34.3848V10.3379C49.9375 10.0918 49.9668 9.92773 50.0254 9.8457C50.0957 9.76367 50.2012 9.72266 50.3418 9.72266H58.5332C58.6855 9.72266 58.791 9.75195 58.8496 9.81055C58.9082 9.86914 58.9375 10.0215 58.9375 10.2676V10.7598C58.9375 10.9355 58.9141 11.0645 58.8672 11.1465C58.832 11.2285 58.791 11.2754 58.7441 11.2871C58.709 11.2988 58.6387 11.3047 58.5332 11.3047H52.082C51.9648 11.3047 51.9062 11.4687 51.9062 11.7969V20.9199C51.9062 20.9551 51.918 21.0078 51.9414 21.0781C51.9766 21.1367 52 21.166 52.0117 21.166H57.6191C57.7715 21.166 57.877 21.2012 57.9355 21.2715C57.9941 21.3301 58.0234 21.4766 58.0234 21.7109V22.2207C58.0234 22.4668 57.9941 22.625 57.9355 22.6953C57.877 22.7656 57.7715 22.8008 57.6191 22.8008H52.0293C52.0176 22.8008 51.9941 22.8535 51.959 22.959C51.9238 23.0645 51.9062 23.1348 51.9062 23.1699V33.418H58.5684C58.6738 33.418 58.7441 33.4238 58.7793 33.4355C58.8262 33.4473 58.8672 33.4941 58.9023 33.5762C58.9492 33.6582 58.9727 33.7871 58.9727 33.9629V34.4551C58.9727 34.7012 58.9434 34.8535 58.8848 34.9121C58.8262 34.9707 58.7207 35 58.5684 35H50.3418ZM67.8848 35C67.7793 35 67.7031 34.9941 67.6562 34.9824C67.6094 34.959 67.5684 34.9004 67.5332 34.8066C67.498 34.7129 67.4805 34.5723 67.4805 34.3848V10.3379C67.4805 10.0918 67.5098 9.92773 67.5684 9.8457C67.6387 9.76367 67.7441 9.72266 67.8848 9.72266H75.6895C75.8418 9.72266 75.9473 9.75195 76.0059 9.81055C76.0645 9.86914 76.0938 10.0215 76.0938 10.2676V10.7598C76.0938 10.9355 76.0703 11.0645 76.0234 11.1465C75.9883 11.2285 75.9473 11.2754 75.9004 11.2871C75.8652 11.2988 75.7949 11.3047 75.6895 11.3047H69.625C69.5078 11.3047 69.4492 11.457 69.4492 11.7617V21.0781C69.4492 21.1133 69.4609 21.1602 69.4844 21.2188C69.5195 21.2656 69.543 21.2891 69.5547 21.2891H74.8281C74.9805 21.2891 75.0859 21.3184 75.1445 21.377C75.2031 21.4355 75.2324 21.5762 75.2324 21.7988V22.3789C75.2324 22.625 75.2031 22.7773 75.1445 22.8359C75.0859 22.8945 74.9805 22.9238 74.8281 22.9238H69.5723C69.5605 22.9238 69.5371 22.9707 69.502 23.0645C69.4668 23.1582 69.4492 23.2227 69.4492 23.2578V34.3848C69.4492 34.5723 69.4316 34.7129 69.3965 34.8066C69.3613 34.9004 69.3203 34.959 69.2734 34.9824C69.2266 34.9941 69.1504 35 69.0449 35H67.8848ZM79.0293 35C78.8887 35 78.7832 34.9531 78.7129 34.8594C78.6543 34.7656 78.625 34.5605 78.625 34.2441V10.5137C78.625 10.1621 78.6543 9.94531 78.7129 9.86328C78.7715 9.76953 78.877 9.72266 79.0293 9.72266H83.6523C84.2383 9.72266 84.7363 9.73438 85.1465 9.75781C85.5684 9.78125 86.0254 9.83984 86.5176 9.93359C87.0215 10.0273 87.4434 10.1621 87.7832 10.3379C88.123 10.502 88.4629 10.7422 88.8027 11.0586C89.1543 11.3633 89.4297 11.7324 89.6289 12.166C89.8398 12.5996 90.0098 13.1387 90.1387 13.7832C90.2676 14.4277 90.332 15.1602 90.332 15.9805C90.332 17.6328 90.0742 18.8867 89.5586 19.7422C89.0547 20.5859 88.3105 21.2129 87.3262 21.623C87.2559 21.6699 87.2207 21.7168 87.2207 21.7637C87.2207 21.8105 87.25 21.834 87.3086 21.834C87.3438 21.8457 87.3965 21.8691 87.4668 21.9043C87.7949 22.0566 88.0586 22.1914 88.2578 22.3086C88.4688 22.4141 88.709 22.5957 88.9785 22.8535C89.2598 23.0996 89.4824 23.3809 89.6465 23.6973C89.8105 24.0137 89.9512 24.4414 90.0684 24.9805C90.1973 25.5078 90.2676 26.123 90.2793 26.8262V34.0508C90.2793 34.6836 90.1445 35 89.875 35H88.6797C88.4336 35 88.3105 34.6953 88.3105 34.0859V31.9941V26.2461C88.3105 25.5078 88.1934 24.8867 87.959 24.3828C87.7363 23.8672 87.4316 23.4922 87.0449 23.2578C86.6699 23.0234 86.3008 22.8594 85.9375 22.7656C85.5859 22.6719 85.2109 22.625 84.8125 22.625H80.752C80.6465 22.625 80.5938 22.7188 80.5938 22.9062V34.2441C80.5938 34.5488 80.5645 34.7539 80.5059 34.8594C80.4473 34.9531 80.3418 35 80.1895 35H79.0293ZM80.7344 21.0605C80.7344 21.0605 81.7715 21.0605 83.8457 21.0605C85.4277 21.0605 86.5645 20.7031 87.2559 19.9883C87.959 19.2734 88.3105 17.9551 88.3105 16.0332C88.3105 15.2129 88.2285 14.5156 88.0645 13.9414C87.9121 13.3672 87.707 12.9102 87.4492 12.5703C87.2031 12.2305 86.8574 11.9668 86.4121 11.7793C85.9668 11.5801 85.5098 11.4512 85.041 11.3926C84.584 11.334 84.0215 11.3047 83.3535 11.3047H80.7344C80.6406 11.3047 80.5938 11.3809 80.5938 11.5332V20.7969C80.5938 20.9727 80.6406 21.0605 80.7344 21.0605ZM94.3926 35C94.2871 35 94.2109 34.9941 94.1641 34.9824C94.1172 34.959 94.0762 34.9004 94.041 34.8066C94.0059 34.7129 93.9883 34.5723 93.9883 34.3848V10.3379C93.9883 10.0918 94.0176 9.92773 94.0762 9.8457C94.1465 9.76367 94.252 9.72266 94.3926 9.72266H102.584C102.736 9.72266 102.842 9.75195 102.9 9.81055C102.959 9.86914 102.988 10.0215 102.988 10.2676V10.7598C102.988 10.9355 102.965 11.0645 102.918 11.1465C102.883 11.2285 102.842 11.2754 102.795 11.2871C102.76 11.2988 102.689 11.3047 102.584 11.3047H96.1328C96.0156 11.3047 95.957 11.4687 95.957 11.7969V20.9199C95.957 20.9551 95.9688 21.0078 95.9922 21.0781C96.0273 21.1367 96.0508 21.166 96.0625 21.166H101.67C101.822 21.166 101.928 21.2012 101.986 21.2715C102.045 21.3301 102.074 21.4766 102.074 21.7109V22.2207C102.074 22.4668 102.045 22.625 101.986 22.6953C101.928 22.7656 101.822 22.8008 101.67 22.8008H96.0801C96.0684 22.8008 96.0449 22.8535 96.0098 22.959C95.9746 23.0645 95.957 23.1348 95.957 23.1699V33.418H102.619C102.725 33.418 102.795 33.4238 102.83 33.4355C102.877 33.4473 102.918 33.4941 102.953 33.5762C103 33.6582 103.023 33.7871 103.023 33.9629V34.4551C103.023 34.7012 102.994 34.8535 102.936 34.9121C102.877 34.9707 102.771 35 102.619 35H94.3926ZM106.486 35C106.381 35 106.305 34.9941 106.258 34.9824C106.211 34.959 106.17 34.9004 106.135 34.8066C106.1 34.7129 106.082 34.5723 106.082 34.3848V10.3379C106.082 10.0918 106.111 9.92773 106.17 9.8457C106.24 9.76367 106.346 9.72266 106.486 9.72266H114.678C114.83 9.72266 114.936 9.75195 114.994 9.81055C115.053 9.86914 115.082 10.0215 115.082 10.2676V10.7598C115.082 10.9355 115.059 11.0645 115.012 11.1465C114.977 11.2285 114.936 11.2754 114.889 11.2871C114.854 11.2988 114.783 11.3047 114.678 11.3047H108.227C108.109 11.3047 108.051 11.4687 108.051 11.7969V20.9199C108.051 20.9551 108.062 21.0078 108.086 21.0781C108.121 21.1367 108.145 21.166 108.156 21.166H113.764C113.916 21.166 114.021 21.2012 114.08 21.2715C114.139 21.3301 114.168 21.4766 114.168 21.7109V22.2207C114.168 22.4668 114.139 22.625 114.08 22.6953C114.021 22.7656 113.916 22.8008 113.764 22.8008H108.174C108.162 22.8008 108.139 22.8535 108.104 22.959C108.068 23.0645 108.051 23.1348 108.051 23.1699V33.418H114.713C114.818 33.418 114.889 33.4238 114.924 33.4355C114.971 33.4473 115.012 33.4941 115.047 33.5762C115.094 33.6582 115.117 33.7871 115.117 33.9629V34.4551C115.117 34.7012 115.088 34.8535 115.029 34.9121C114.971 34.9707 114.865 35 114.713 35H106.486ZM124.029 35C123.877 35 123.771 34.9531 123.713 34.8594C123.654 34.7539 123.625 34.5254 123.625 34.1738V10.5488C123.625 10.1973 123.654 9.97461 123.713 9.88086C123.771 9.77539 123.877 9.72266 124.029 9.72266H125.189C125.342 9.72266 125.447 9.77539 125.506 9.88086C125.564 9.97461 125.594 10.1973 125.594 10.5488V33.0664C125.594 33.1719 125.605 33.2539 125.629 33.3125C125.652 33.3711 125.676 33.4062 125.699 33.418C125.734 33.418 125.781 33.418 125.84 33.418H130.516C130.668 33.418 130.773 33.4473 130.832 33.5059C130.902 33.5527 130.938 33.6934 130.938 33.9277V34.4551C130.938 34.6191 130.914 34.7422 130.867 34.8242C130.832 34.9062 130.791 34.959 130.744 34.9824C130.697 34.9941 130.621 35 130.516 35H124.029ZM134.189 35C134.037 35 133.932 34.9531 133.873 34.8594C133.814 34.7539 133.785 34.5254 133.785 34.1738V10.5488C133.785 10.1973 133.814 9.97461 133.873 9.88086C133.932 9.77539 134.037 9.72266 134.189 9.72266H135.35C135.502 9.72266 135.607 9.77539 135.666 9.88086C135.725 9.97461 135.754 10.1973 135.754 10.5488V34.1738C135.754 34.5254 135.725 34.7539 135.666 34.8594C135.607 34.9531 135.502 35 135.35 35H134.189ZM140.025 35C139.85 35 139.727 34.9648 139.656 34.8945C139.586 34.8125 139.551 34.6191 139.551 34.3145V10.4434C139.551 10.2207 139.574 10.0566 139.621 9.95117C139.668 9.83398 139.715 9.76953 139.762 9.75781C139.82 9.73438 139.908 9.72266 140.025 9.72266H145.58C146.436 9.72266 147.186 9.8457 147.83 10.0918C148.475 10.3262 149.043 10.707 149.535 11.2344C150.027 11.75 150.402 12.4648 150.66 13.3789C150.918 14.293 151.047 15.3945 151.047 16.6836C151.047 18.957 150.379 20.5215 149.043 21.377C148.949 21.4355 148.902 21.4883 148.902 21.5352C148.902 21.582 148.955 21.6289 149.061 21.6758C150.83 22.7773 151.715 24.7344 151.715 27.5469C151.715 28.9648 151.574 30.1602 151.293 31.1328C151.023 32.1055 150.602 32.873 150.027 33.4355C149.465 33.998 148.797 34.4023 148.023 34.6484C147.262 34.8828 146.33 35 145.229 35H140.025ZM141.766 33.4531C141.766 33.4531 142.914 33.4531 145.211 33.4531C146.816 33.4531 147.971 32.9668 148.674 31.9941C149.389 31.0098 149.746 29.5508 149.746 27.6172C149.746 26 149.395 24.7168 148.691 23.7676C148 22.8066 147.139 22.3262 146.107 22.3262C146.107 22.3262 144.66 22.3262 141.766 22.3262C141.602 22.3262 141.52 22.4492 141.52 22.6953V33.1719C141.52 33.2656 141.531 33.3359 141.555 33.3828C141.578 33.418 141.602 33.4414 141.625 33.4531C141.66 33.4531 141.707 33.4531 141.766 33.4531ZM141.766 20.8145H146.23C147.098 20.8145 147.795 20.457 148.322 19.7422C148.85 19.0273 149.113 18.002 149.113 16.666C149.113 14.8262 148.803 13.4727 148.182 12.6055C147.572 11.7383 146.629 11.3047 145.352 11.3047C145.352 11.3047 144.156 11.3047 141.766 11.3047C141.672 11.3047 141.607 11.3223 141.572 11.3574C141.537 11.3926 141.52 11.4922 141.52 11.6562V20.5332C141.52 20.627 141.531 20.6973 141.555 20.7441C141.578 20.7793 141.602 20.8027 141.625 20.8145C141.66 20.8145 141.707 20.8145 141.766 20.8145ZM155.107 35C154.967 35 154.861 34.9531 154.791 34.8594C154.732 34.7656 154.703 34.5605 154.703 34.2441V10.5137C154.703 10.1621 154.732 9.94531 154.791 9.86328C154.85 9.76953 154.955 9.72266 155.107 9.72266H159.73C160.316 9.72266 160.814 9.73438 161.225 9.75781C161.646 9.78125 162.104 9.83984 162.596 9.93359C163.1 10.0273 163.521 10.1621 163.861 10.3379C164.201 10.502 164.541 10.7422 164.881 11.0586C165.232 11.3633 165.508 11.7324 165.707 12.166C165.918 12.5996 166.088 13.1387 166.217 13.7832C166.346 14.4277 166.41 15.1602 166.41 15.9805C166.41 17.6328 166.152 18.8867 165.637 19.7422C165.133 20.5859 164.389 21.2129 163.404 21.623C163.334 21.6699 163.299 21.7168 163.299 21.7637C163.299 21.8105 163.328 21.834 163.387 21.834C163.422 21.8457 163.475 21.8691 163.545 21.9043C163.873 22.0566 164.137 22.1914 164.336 22.3086C164.547 22.4141 164.787 22.5957 165.057 22.8535C165.338 23.0996 165.561 23.3809 165.725 23.6973C165.889 24.0137 166.029 24.4414 166.146 24.9805C166.275 25.5078 166.346 26.123 166.357 26.8262V34.0508C166.357 34.6836 166.223 35 165.953 35H164.758C164.512 35 164.389 34.6953 164.389 34.0859V31.9941V26.2461C164.389 25.5078 164.271 24.8867 164.037 24.3828C163.814 23.8672 163.51 23.4922 163.123 23.2578C162.748 23.0234 162.379 22.8594 162.016 22.7656C161.664 22.6719 161.289 22.625 160.891 22.625H156.83C156.725 22.625 156.672 22.7188 156.672 22.9062V34.2441C156.672 34.5488 156.643 34.7539 156.584 34.8594C156.525 34.9531 156.42 35 156.268 35H155.107ZM156.812 21.0605C156.812 21.0605 157.85 21.0605 159.924 21.0605C161.506 21.0605 162.643 20.7031 163.334 19.9883C164.037 19.2734 164.389 17.9551 164.389 16.0332C164.389 15.2129 164.307 14.5156 164.143 13.9414C163.99 13.3672 163.785 12.9102 163.527 12.5703C163.281 12.2305 162.936 11.9668 162.49 11.7793C162.045 11.5801 161.588 11.4512 161.119 11.3926C160.662 11.334 160.1 11.3047 159.432 11.3047H156.812C156.719 11.3047 156.672 11.3809 156.672 11.5332V20.7969C156.672 20.9727 156.719 21.0605 156.812 21.0605ZM169.434 35C169.258 35 169.17 34.8184 169.17 34.4551V34.2617C169.17 34.168 169.176 34.0859 169.188 34.0156L173.547 10.6895C173.664 10.0801 173.875 9.75781 174.18 9.72266H175.85C176.154 9.75781 176.359 10.0801 176.465 10.6895L180.578 34.0156C180.59 34.0742 180.607 34.1504 180.631 34.2441C180.666 34.3262 180.684 34.4023 180.684 34.4727C180.684 34.8242 180.596 35 180.42 35H179.172C178.797 35 178.562 34.7129 178.469 34.1387L177.678 29.0762C177.643 28.959 177.607 28.9004 177.572 28.9004H172.07C172.047 28.9004 172.018 28.9648 171.982 29.0938L171.068 34.1211C170.998 34.4609 170.916 34.6953 170.822 34.8242C170.74 34.9414 170.617 35 170.453 35H169.434ZM172.58 27.4941C172.58 27.4941 174.156 27.4941 177.309 27.4941C177.355 27.4941 177.379 27.4414 177.379 27.3359C177.379 27.2773 177.367 27.2422 177.344 27.2305L175.006 12.2188L174.971 12.1484C174.947 12.1484 174.936 12.1719 174.936 12.2188L172.422 27.1426C172.41 27.2012 172.404 27.2539 172.404 27.3008C172.404 27.4297 172.463 27.4941 172.58 27.4941ZM183.9 35C183.76 35 183.654 34.9531 183.584 34.8594C183.525 34.7656 183.496 34.5605 183.496 34.2441V10.5137C183.496 10.1621 183.525 9.94531 183.584 9.86328C183.643 9.76953 183.748 9.72266 183.9 9.72266H188.523C189.109 9.72266 189.607 9.73438 190.018 9.75781C190.439 9.78125 190.896 9.83984 191.389 9.93359C191.893 10.0273 192.314 10.1621 192.654 10.3379C192.994 10.502 193.334 10.7422 193.674 11.0586C194.025 11.3633 194.301 11.7324 194.5 12.166C194.711 12.5996 194.881 13.1387 195.01 13.7832C195.139 14.4277 195.203 15.1602 195.203 15.9805C195.203 17.6328 194.945 18.8867 194.43 19.7422C193.926 20.5859 193.182 21.2129 192.197 21.623C192.127 21.6699 192.092 21.7168 192.092 21.7637C192.092 21.8105 192.121 21.834 192.18 21.834C192.215 21.8457 192.268 21.8691 192.338 21.9043C192.666 22.0566 192.93 22.1914 193.129 22.3086C193.34 22.4141 193.58 22.5957 193.85 22.8535C194.131 23.0996 194.354 23.3809 194.518 23.6973C194.682 24.0137 194.822 24.4414 194.939 24.9805C195.068 25.5078 195.139 26.123 195.15 26.8262V34.0508C195.15 34.6836 195.016 35 194.746 35H193.551C193.305 35 193.182 34.6953 193.182 34.0859V31.9941V26.2461C193.182 25.5078 193.064 24.8867 192.83 24.3828C192.607 23.8672 192.303 23.4922 191.916 23.2578C191.541 23.0234 191.172 22.8594 190.809 22.7656C190.457 22.6719 190.082 22.625 189.684 22.625H185.623C185.518 22.625 185.465 22.7188 185.465 22.9062V34.2441C185.465 34.5488 185.436 34.7539 185.377 34.8594C185.318 34.9531 185.213 35 185.061 35H183.9ZM185.605 21.0605C185.605 21.0605 186.643 21.0605 188.717 21.0605C190.299 21.0605 191.436 20.7031 192.127 19.9883C192.83 19.2734 193.182 17.9551 193.182 16.0332C193.182 15.2129 193.1 14.5156 192.936 13.9414C192.783 13.3672 192.578 12.9102 192.32 12.5703C192.074 12.2305 191.729 11.9668 191.283 11.7793C190.838 11.5801 190.381 11.4512 189.912 11.3926C189.455 11.334 188.893 11.3047 188.225 11.3047H185.605C185.512 11.3047 185.465 11.3809 185.465 11.5332V20.7969C185.465 20.9727 185.512 21.0605 185.605 21.0605ZM202.059 35C201.918 35 201.812 34.9414 201.742 34.8242C201.684 34.6953 201.654 34.4492 201.654 34.0859V25.5078L197.787 10.7422C197.705 10.4961 197.664 10.2852 197.664 10.1094C197.664 9.85156 197.781 9.72266 198.016 9.72266H199.053C199.404 9.72266 199.645 9.96875 199.773 10.4609L202.744 22.1855L205.68 10.4609C205.727 10.2266 205.814 10.0449 205.943 9.91602C206.072 9.78711 206.207 9.72266 206.348 9.72266H207.262C207.484 9.72266 207.596 9.86328 207.596 10.1445C207.596 10.3555 207.566 10.5547 207.508 10.7422L203.658 25.4551V34.0859C203.658 34.4492 203.623 34.6953 203.553 34.8242C203.494 34.9414 203.395 35 203.254 35H202.059Z" fill="white"/>
<path fill-rule="evenodd" clip-rule="evenodd" d="M84.064 53.792C83.2 54.368 82.528 55.256 82.048 56.456L79.678 62.3938C83.2764 63.2648 86.7943 64.3898 90.2756 65.6691L92.56 60.776C92.944 59.912 93.136 59.12 93.136 58.4C93.136 56.864 92.512 55.568 91.264 54.512C90.016 53.408 88.6 52.856 87.016 52.856C85.96 52.856 84.976 53.168 84.064 53.792ZM89.8508 66.579C86.3777 65.3048 82.878 64.1898 79.3037 63.3315L75.352 73.232L70.4027 61.7991C68.468 61.6043 66.5027 61.5 64.5 61.5C61.0868 61.5 57.8489 61.832 54.7587 62.4076L50.224 73.16L46.6695 64.5169C42.9201 65.7632 39.3831 67.2926 35.9946 68.9028L43.816 85.76C44.392 86.96 45.208 87.896 46.264 88.568C47.368 89.192 48.568 89.504 49.864 89.504C51.16 89.504 52.336 89.192 53.392 88.568C54.496 87.896 55.288 86.96 55.768 85.76L62.176 70.568L69.016 85.76C69.544 86.96 70.336 87.896 71.392 88.568C72.448 89.192 73.624 89.504 74.92 89.504C76.216 89.504 77.392 89.192 78.448 88.568C79.552 87.896 80.368 86.96 80.896 85.76L89.8508 66.579ZM35.5737 67.9955L32.224 60.776C31.888 60.056 31.72 59.288 31.72 58.472C31.72 56.888 32.368 55.568 33.664 54.512C35.008 53.408 36.496 52.856 38.128 52.856C39.28 52.856 40.312 53.168 41.224 53.792C42.184 54.368 42.904 55.28 43.384 56.528L46.2882 63.5899C42.5128 64.8487 38.9609 66.3861 35.5737 67.9955ZM55.2224 61.3081L57.208 56.6C57.688 55.4 58.432 54.488 59.44 53.864C60.448 53.24 61.528 52.928 62.68 52.928C63.832 52.928 64.912 53.24 65.92 53.864C66.928 54.488 67.672 55.4 68.152 56.6L69.9491 60.7512C68.161 60.5873 66.3462 60.5 64.5 60.5C61.2577 60.5 58.1723 60.7942 55.2224 61.3081ZM98.0447 69.8439C100.292 70.7948 102.544 71.7803 104.814 72.7737C105.335 73.0015 105.857 73.2298 106.379 73.4582C106.937 73.7019 107.496 73.9457 108.057 74.1891C107.788 74.2699 107.544 74.3588 107.325 74.456C106.029 74.984 105.381 75.896 105.381 77.192C105.381 78.296 105.717 79.208 106.389 79.928C107.109 80.648 108.021 81.008 109.125 81.008C110.853 81.008 112.269 80.408 113.373 79.208C113.949 78.5573 114.374 77.8153 114.65 76.982C118.706 78.6407 122.867 80.2034 127.197 81.5264V83.6C127.197 85.424 126.645 86.864 125.541 87.92C124.485 88.928 122.997 89.432 121.077 89.432C119.397 89.432 118.005 88.952 116.901 87.992C115.845 87.032 115.269 85.736 115.173 84.104C114.501 85.832 113.373 87.176 111.789 88.136C110.205 89.096 108.309 89.576 106.101 89.576C103.653 89.576 101.445 89.096 99.4771 88.136C97.5091 87.128 95.9491 85.76 94.7971 84.032C93.6931 82.256 93.1411 80.264 93.1411 78.056C93.1411 75.512 93.7891 73.496 95.0851 72.008C95.8335 71.1527 96.82 70.4313 98.0447 69.8439ZM127.197 80.4802V68.552C127.197 63.224 125.877 59.264 123.237 56.672C120.645 54.032 116.613 52.712 111.141 52.712C108.693 52.712 106.197 52.976 103.653 53.504C101.109 54.032 98.9971 54.728 97.3171 55.592C96.3571 56.12 95.6611 56.72 95.2291 57.392C94.7971 58.064 94.5811 58.928 94.5811 59.984C94.5811 61.376 94.9411 62.504 95.6611 63.368C96.3811 64.232 97.3411 64.664 98.5411 64.664C99.3091 64.664 100.245 64.472 101.349 64.088C105.141 62.744 108.021 62.072 109.989 62.072C111.813 62.072 113.109 62.456 113.877 63.224C114.645 63.944 115.029 65.144 115.029 66.824V67.688H113.085C108.189 67.688 104.301 68.024 101.421 68.696C100.675 68.8702 99.9798 69.0734 99.3365 69.3056C101.273 70.132 103.21 70.9798 105.155 71.8311L105.161 71.8339C105.7 72.0697 106.239 72.3058 106.78 72.5418C107.767 72.9732 108.758 73.4044 109.752 73.8331C110.879 73.6724 112.254 73.592 113.877 73.592H115.029V74.456C115.029 74.9983 114.985 75.5137 114.897 76.0024C118.886 77.6362 122.964 79.1739 127.197 80.4802ZM130.06 82.3575V83.528C130.06 85.496 130.66 86.984 131.86 87.992C133.108 88.952 134.644 89.432 136.468 89.432C138.292 89.432 139.804 88.952 141.004 87.992C141.942 87.2338 142.528 86.2039 142.761 84.9024C138.337 84.3595 134.121 83.4737 130.06 82.3575ZM142.868 83.9083C138.408 83.3601 134.157 82.4586 130.06 81.3201V43.856C130.06 41.888 130.66 40.4 131.86 39.392C133.108 38.384 134.644 37.88 136.468 37.88C138.292 37.88 139.804 38.384 141.004 39.392C142.252 40.4 142.876 41.888 142.876 43.856V83.528C142.876 83.6568 142.873 83.7836 142.868 83.9083ZM146.204 85.2505C146.475 86.3221 147.004 87.188 147.79 87.848C149.038 88.856 150.574 89.36 152.398 89.36C154.222 89.36 155.734 88.856 156.934 87.848C157.732 87.2029 158.275 86.3612 158.563 85.3228C156.637 85.4407 154.621 85.5 152.5 85.5C150.353 85.5 148.256 85.4133 146.204 85.2505ZM158.756 84.3088C156.776 84.4359 154.696 84.5 152.5 84.5C150.292 84.5 148.137 84.4072 146.03 84.2332C146.003 83.9608 145.99 83.6778 145.99 83.384V43.856C145.99 41.888 146.59 40.4 147.79 39.392C149.038 38.384 150.574 37.88 152.398 37.88C154.222 37.88 155.734 38.384 156.934 39.392C158.182 40.4 158.806 41.888 158.806 43.856V68.264L172.126 54.728C173.326 53.48 174.718 52.856 176.302 52.856C177.838 52.856 179.182 53.456 180.334 54.656C181.534 55.808 182.134 57.128 182.134 58.616C182.134 60.104 181.51 61.472 180.262 62.72L172.414 70.496L181.044 78.778C180.589 78.9979 180.131 79.2116 179.67 79.419C176.25 80.958 172.643 82.1574 168.629 83.0034L158.806 73.664V83.384C158.806 83.705 158.789 84.0133 158.756 84.3088ZM169.505 83.8367L173.422 87.56C174.766 88.76 176.11 89.36 177.454 89.36C179.038 89.36 180.382 88.736 181.486 87.488C182.638 86.24 183.214 84.824 183.214 83.24C183.214 81.8565 182.738 80.6195 181.786 79.529C181.222 79.8056 180.653 80.073 180.08 80.331C176.782 81.8153 173.318 82.9868 169.505 83.8367Z" fill="white"/>
<path d="M7.5 78.5C24 78.5 39.6066 60 64.5 60C95 60 116.879 84 152.5 84C175.5 84 186 78 202 64" stroke="white" stroke-width="1.2"/>
<mask id="path-4-outside-1" maskUnits="userSpaceOnUse" x="195" y="44" width="15" height="19" fill="black">
<rect fill="white" x="195" y="44" width="15" height="19"/>
<path fill-rule="evenodd" clip-rule="evenodd" d="M202.526 61C203.217 61 208.053 53.9612 208.053 51.4369C208.053 48.4342 205.578 46 202.526 46C199.474 46 197 48.4342 197 51.4369C197 54.0583 201.836 61 202.526 61ZM202.5 54.5C204.157 54.5 205.5 53.1569 205.5 51.5C205.5 49.8431 204.157 48.5 202.5 48.5C200.843 48.5 199.5 49.8431 199.5 51.5C199.5 53.1569 200.843 54.5 202.5 54.5Z"/>
</mask>
<path fill-rule="evenodd" clip-rule="evenodd" d="M202.526 61C203.217 61 208.053 53.9612 208.053 51.4369C208.053 48.4342 205.578 46 202.526 46C199.474 46 197 48.4342 197 51.4369C197 54.0583 201.836 61 202.526 61ZM202.5 54.5C204.157 54.5 205.5 53.1569 205.5 51.5C205.5 49.8431 204.157 48.5 202.5 48.5C200.843 48.5 199.5 49.8431 199.5 51.5C199.5 53.1569 200.843 54.5 202.5 54.5Z" fill="white"/>
<path d="M206.553 51.4369C206.553 51.714 206.382 52.3666 205.922 53.3722C205.493 54.3106 204.902 55.3685 204.276 56.3708C203.651 57.3724 203.013 58.2849 202.503 58.933C202.244 59.2613 202.041 59.4931 201.904 59.6295C201.832 59.7007 201.811 59.7135 201.833 59.6979C201.844 59.6899 201.896 59.6536 201.981 59.6147C202.053 59.582 202.25 59.5 202.526 59.5V62.5C202.846 62.5 203.094 62.4042 203.225 62.3448C203.369 62.2791 203.487 62.2029 203.572 62.1428C203.74 62.0229 203.893 61.882 204.02 61.7558C204.28 61.4973 204.568 61.1595 204.86 60.7885C205.451 60.0379 206.151 59.0329 206.821 57.9593C207.491 56.8864 208.151 55.7112 208.65 54.6199C209.119 53.5957 209.553 52.4219 209.553 51.4369H206.553ZM202.526 47.5C204.773 47.5 206.553 49.2856 206.553 51.4369H209.553C209.553 47.5828 206.384 44.5 202.526 44.5V47.5ZM198.5 51.4369C198.5 49.2856 200.279 47.5 202.526 47.5V44.5C198.669 44.5 195.5 47.5828 195.5 51.4369H198.5ZM202.526 59.5C202.799 59.5 202.993 59.5797 203.064 59.6118C203.149 59.6499 203.201 59.6855 203.212 59.6936C203.234 59.7091 203.213 59.6967 203.142 59.6268C203.006 59.4929 202.803 59.2645 202.545 58.9404C202.036 58.3005 201.399 57.3981 200.775 56.4039C200.15 55.4089 199.56 54.3559 199.132 53.4155C198.675 52.4132 198.5 51.7436 198.5 51.4369H195.5C195.5 52.4409 195.929 53.622 196.401 54.6586C196.901 55.7569 197.563 56.9309 198.234 57.999C198.905 59.068 199.606 60.0648 200.198 60.8084C200.49 61.176 200.779 61.5105 201.039 61.7664C201.166 61.8914 201.32 62.0308 201.489 62.1492C201.574 62.2087 201.691 62.2837 201.835 62.3482C201.965 62.4067 202.211 62.5 202.526 62.5V59.5ZM204 51.5C204 52.3284 203.328 53 202.5 53V56C204.985 56 207 53.9853 207 51.5H204ZM202.5 50C203.328 50 204 50.6716 204 51.5H207C207 49.0147 204.985 47 202.5 47V50ZM201 51.5C201 50.6716 201.672 50 202.5 50V47C200.015 47 198 49.0147 198 51.5H201ZM202.5 53C201.672 53 201 52.3284 201 51.5H198C198 53.9853 200.015 56 202.5 56V53Z" fill="white" fill-opacity="0.45" mask="url(#path-4-outside-1)"/>
<mask id="path-6-outside-2" maskUnits="userSpaceOnUse" x="0" y="58" width="15" height="19" fill="black">
<rect fill="white" y="58" width="15" height="19"/>
<path fill-rule="evenodd" clip-rule="evenodd" d="M7.52632 75C8.2171 75 13.0526 67.9612 13.0526 65.4369C13.0526 62.4342 10.5784 60 7.52632 60C4.47422 60 2 62.4342 2 65.4369C2 68.0583 6.83553 75 7.52632 75ZM7.5 68.5C9.15685 68.5 10.5 67.1569 10.5 65.5C10.5 63.8431 9.15685 62.5 7.5 62.5C5.84315 62.5 4.5 63.8431 4.5 65.5C4.5 67.1569 5.84315 68.5 7.5 68.5Z"/>
</mask>
<path fill-rule="evenodd" clip-rule="evenodd" d="M7.52632 75C8.2171 75 13.0526 67.9612 13.0526 65.4369C13.0526 62.4342 10.5784 60 7.52632 60C4.47422 60 2 62.4342 2 65.4369C2 68.0583 6.83553 75 7.52632 75ZM7.5 68.5C9.15685 68.5 10.5 67.1569 10.5 65.5C10.5 63.8431 9.15685 62.5 7.5 62.5C5.84315 62.5 4.5 63.8431 4.5 65.5C4.5 67.1569 5.84315 68.5 7.5 68.5Z" fill="white"/>
<path d="M11.5526 65.4369C11.5526 65.714 11.382 66.3666 10.9222 67.3722C10.493 68.3106 9.90164 69.3685 9.27603 70.3708C8.65092 71.3724 8.01271 72.2849 7.50257 72.933C7.24413 73.2613 7.04096 73.4931 6.90395 73.6295C6.83242 73.7007 6.81106 73.7135 6.83292 73.6979C6.84419 73.6899 6.89577 73.6536 6.98117 73.6147C7.05288 73.582 7.24968 73.5 7.52632 73.5V76.5C7.84612 76.5 8.0942 76.4042 8.22472 76.3448C8.36894 76.2791 8.48689 76.2029 8.57152 76.1428C8.7401 76.0229 8.89346 75.882 9.02026 75.7558C9.27992 75.4973 9.56785 75.1595 9.85989 74.7885C10.4507 74.0379 11.1509 73.0329 11.821 71.9593C12.4906 70.8864 13.1513 69.7112 13.6504 68.6199C14.1188 67.5957 14.5526 66.4219 14.5526 65.4369H11.5526ZM7.52632 61.5C9.77315 61.5 11.5526 63.2856 11.5526 65.4369H14.5526C14.5526 61.5828 11.3837 58.5 7.52632 58.5V61.5ZM3.5 65.4369C3.5 63.2856 5.27948 61.5 7.52632 61.5V58.5C3.66895 58.5 0.5 61.5828 0.5 65.4369H3.5ZM7.52632 73.5C7.79885 73.5 7.99308 73.5797 8.06448 73.6118C8.14927 73.6499 8.20063 73.6855 8.21206 73.6936C8.23415 73.7091 8.21311 73.6967 8.14198 73.6268C8.00568 73.4929 7.80306 73.2645 7.54512 72.9404C7.03594 72.3005 6.39864 71.3981 5.7745 70.4039C5.14982 69.4089 4.5597 68.3559 4.13151 67.4155C3.67519 66.4132 3.5 65.7436 3.5 65.4369H0.5C0.5 66.4409 0.92925 67.622 1.40117 68.6586C1.90124 69.7569 2.56317 70.9309 3.23372 71.999C3.90481 73.068 4.60591 74.0648 5.19768 74.8084C5.49021 75.176 5.77871 75.5105 6.03907 75.7664C6.16627 75.8914 6.31995 76.0308 6.48877 76.1492C6.57356 76.2087 6.69128 76.2837 6.83489 76.3482C6.96511 76.4067 7.2106 76.5 7.52632 76.5V73.5ZM9 65.5C9 66.3284 8.32843 67 7.5 67V70C9.98528 70 12 67.9853 12 65.5H9ZM7.5 64C8.32843 64 9 64.6716 9 65.5H12C12 63.0147 9.98528 61 7.5 61V64ZM6 65.5C6 64.6716 6.67157 64 7.5 64V61C5.01472 61 3 63.0147 3 65.5H6ZM7.5 67C6.67157 67 6 66.3284 6 65.5H3C3 67.9853 5.01472 70 7.5 70V67Z" fill="white" fill-opacity="0.45" mask="url(#path-6-outside-2)"/>
</svg>
